<svg width="25" height="24" viewBox="0 0 25 24" fill="none" xmlns="http://www.w3.org/2000/svg">
<path fill-rule="evenodd" clip-rule="evenodd" d="M12.5 18.2669C11.1091 18.2653 9.77571 17.7121 8.79224 16.7286C7.80877 15.7452 7.25555 14.4117 7.25397 13.0209C7.25529 11.6299 7.80838 10.2962 8.79189 9.31253C9.77539 8.32884 11.109 7.77549 12.5 7.7739C13.891 7.77549 15.2245 8.32884 16.208 9.31253C17.1915 10.2962 17.7446 11.6299 17.746 13.0209C17.7444 14.4117 17.1912 15.7452 16.2077 16.7286C15.2242 17.7121 13.8908 18.2653 12.5 18.2669ZM20.613 5.1359H17.659L16.546 2.9669C16.3695 2.62354 16.1017 2.33547 15.7722 2.13435C15.4426 1.93323 15.064 1.82685 14.678 1.8269H10.265C9.8713 1.82686 9.48555 1.93747 9.15172 2.14611C8.81789 2.35475 8.54943 2.65303 8.37697 3.0069L7.34097 5.1359H4.38697C4.05595 5.13577 3.72815 5.20086 3.4223 5.32744C3.11644 5.45402 2.83852 5.63962 2.60441 5.87364C2.3703 6.10766 2.18459 6.38551 2.05789 6.69131C1.93118 6.99712 1.86597 7.32489 1.86597 7.6559V19.2569C1.86597 19.5879 1.93118 19.9157 2.05789 20.2215C2.18459 20.5273 2.3703 20.8052 2.60441 21.0392C2.83852 21.2732 3.11644 21.4588 3.4223 21.5854C3.72815 21.712 4.05595 21.777 4.38697 21.7769H20.613C20.944 21.777 21.2718 21.712 21.5776 21.5854C21.8835 21.4588 22.1614 21.2732 22.3955 21.0392C22.6296 20.8052 22.8153 20.5273 22.942 20.2215C23.0688 19.9157 23.134 19.5879 23.134 19.2569V7.6559C23.134 7.32489 23.0688 6.99712 22.942 6.69131C22.8153 6.38551 22.6296 6.10766 22.3955 5.87364C22.1614 5.63962 21.8835 5.45402 21.5776 5.32744C21.2718 5.20086 20.944 5.13577 20.613 5.1359Z" fill="#2D2F2D"/>
<path fill-rule="evenodd" clip-rule="evenodd" d="M12.5 9.66382C11.6104 9.66488 10.7575 10.0188 10.1285 10.648C9.49951 11.2772 9.14581 12.1302 9.14502 13.0198C9.14555 13.9096 9.49916 14.7627 10.1282 15.3919C10.7572 16.0212 11.6103 16.375 12.5 16.3758C13.3897 16.375 14.2428 16.0212 14.8718 15.3919C15.5009 14.7627 15.8545 13.9096 15.855 13.0198C15.8542 12.1302 15.5005 11.2772 14.8715 10.648C14.2426 10.0188 13.3897 9.66488 12.5 9.66382Z" fill="#2D2F2D"/>
</svg>
