<svg width="24" height="24" viewBox="0 0 24 24" fill="none" xmlns="http://www.w3.org/2000/svg">
<path d="M2.6 7.33333C2.6 6.39001 2.60047 5.71861 2.64342 5.19287C2.6858 4.67413 2.76654 4.35027 2.89792 4.09243C3.15997 3.57812 3.57812 3.15997 4.09243 2.89792C4.35027 2.76654 4.67413 2.6858 5.19287 2.64342C5.71861 2.60047 6.39001 2.6 7.33333 2.6H16.6667C17.61 2.6 18.2814 2.60047 18.8071 2.64342C19.3259 2.6858 19.6497 2.76654 19.9076 2.89792C20.4219 3.15997 20.84 3.57812 21.1021 4.09242L21.6224 3.82733L21.1021 4.09243C21.2335 4.35027 21.3142 4.67413 21.3566 5.19287C21.3995 5.71861 21.4 6.39001 21.4 7.33333V16.6667C21.4 17.61 21.3995 18.2814 21.3566 18.8071C21.3142 19.3259 21.2335 19.6497 21.1021 19.9076C20.84 20.4219 20.4219 20.84 19.9076 21.1021C19.6497 21.2335 19.3259 21.3142 18.8071 21.3566C18.2814 21.3995 17.61 21.4 16.6667 21.4H7.33333C6.39001 21.4 5.71861 21.3995 5.19287 21.3566C4.67413 21.3142 4.35027 21.2335 4.09243 21.1021L3.82003 21.6367L4.09242 21.1021C3.57812 20.84 3.15997 20.4219 2.89792 19.9076C2.76654 19.6497 2.6858 19.3259 2.64342 18.8071C2.60047 18.2814 2.6 17.61 2.6 16.6667V7.33333Z" stroke="#9FA499" stroke-width="1.2" stroke-linecap="round" stroke-linejoin="round"/>
</svg>
