<svg width="119" height="30" viewBox="0 0 119 30" fill="none" xmlns="http://www.w3.org/2000/svg">
<g filter="url(#filter0_d_826_200)">
<rect x="3" y="3" width="112.531" height="24" rx="12" fill="white" shape-rendering="crispEdges"/>
<path d="M11.3458 16.7174C11.3458 16.7174 13.1783 20.8303 13.614 20.8687C14.0496 20.9071 16.1187 17.38 17.7522 13.7699M22.5313 9.36189C22.5313 9.36189 20.0765 13.5951 17.7522 13.7699M17.7522 13.7699C18.847 11.3504 17.3803 8.02962 15.01 10.0158C12.6397 12.002 15.269 13.9566 17.7522 13.7699Z" stroke="#7FE241" stroke-width="2.5" stroke-linecap="round"/>
<path d="M33.5633 10.384H34.6673L38.3753 16.912L42.0833 10.384H43.1873V19.996H41.9273V12.904L38.8313 18.376H37.9193L34.8233 12.904V19.996H33.5633V10.384ZM50.6111 20.164C48.6671 20.164 47.2151 18.616 47.2151 16.564C47.2151 14.512 48.6671 12.964 50.6111 12.964C51.8591 12.964 52.6991 13.564 53.0471 14.152V13.132H54.2831V19.996H53.0471V18.976C52.6991 19.564 51.8591 20.164 50.6111 20.164ZM50.7191 19.072C52.1111 19.072 53.0711 17.992 53.0711 16.564C53.0711 15.136 52.1111 14.056 50.7191 14.056C49.3391 14.056 48.4271 15.136 48.4271 16.564C48.4271 17.992 49.3391 19.072 50.7191 19.072ZM58.6236 13.132H59.8596V14.176C60.1476 13.672 60.9276 12.964 62.1876 12.964C63.8076 12.964 64.9476 14.128 64.9476 15.976V19.996H63.7116V16.192C63.7116 14.8 63.0396 14.044 61.9236 14.044C60.7236 14.044 59.8596 15.172 59.8596 16.444V19.996H58.6236V13.132ZM72.1338 20.164C70.1898 20.164 68.7378 18.616 68.7378 16.564C68.7378 14.512 70.1898 12.964 72.1338 12.964C73.3818 12.964 74.2218 13.564 74.5698 14.152V13.132H75.8058V19.996H74.5698V18.976C74.2218 19.564 73.3818 20.164 72.1338 20.164ZM72.2418 19.072C73.6338 19.072 74.5938 17.992 74.5938 16.564C74.5938 15.136 73.6338 14.056 72.2418 14.056C70.8618 14.056 69.9498 15.136 69.9498 16.564C69.9498 17.992 70.8618 19.072 72.2418 19.072ZM83.5062 23.08C81.5382 23.08 80.4942 21.94 80.2542 20.644H81.5142C81.6582 21.376 82.2702 22.012 83.5062 22.012C84.7542 22.012 85.6182 21.172 85.6182 19.828V18.88C85.2702 19.468 84.4302 20.068 83.1822 20.068C81.2382 20.068 79.7862 18.544 79.7862 16.528C79.7862 14.5 81.2382 12.964 83.1822 12.964C84.4302 12.964 85.2702 13.564 85.6182 14.152V13.132H86.8542V19.84C86.8542 21.736 85.4742 23.08 83.5062 23.08ZM83.2902 19C84.6822 19 85.6422 17.932 85.6422 16.528C85.6422 15.124 84.6822 14.056 83.2902 14.056C81.9102 14.056 80.9982 15.124 80.9982 16.528C80.9982 17.932 81.9102 19 83.2902 19ZM94.2787 20.164C92.2747 20.164 90.8347 18.628 90.8347 16.564C90.8347 14.5 92.2747 12.964 94.2787 12.964C96.2827 12.964 97.7107 14.5 97.7107 16.564C97.7107 16.72 97.7107 16.9 97.6867 17.068H92.0707C92.2027 18.244 93.0547 19.12 94.2787 19.12C95.2147 19.12 95.9467 18.688 96.1987 18.124H97.4587C97.0867 19.312 95.8507 20.164 94.2787 20.164ZM96.4987 16.06C96.3547 14.86 95.5147 14.008 94.2787 14.008C93.0427 14.008 92.2027 14.872 92.0707 16.06H96.4987ZM101.681 13.132H102.917V14.188C103.217 13.672 104.045 12.964 105.389 12.964C105.809 12.964 106.085 13 106.325 13.084V14.26C106.061 14.14 105.725 14.068 105.305 14.068C103.901 14.068 102.917 15.196 102.917 16.444V19.996H101.681V13.132Z" fill="#7FE241"/>
</g>
<defs>
<filter id="filter0_d_826_200" x="0" y="0" width="118.531" height="30" filterUnits="userSpaceOnUse" color-interpolation-filters="sRGB">
<feFlood flood-opacity="0" result="BackgroundImageFix"/>
<feColorMatrix in="SourceAlpha" type="matrix" values="0 0 0 0 0 0 0 0 0 0 0 0 0 0 0 0 0 0 127 0" result="hardAlpha"/>
<feOffset/>
<feGaussianBlur stdDeviation="1.5"/>
<feComposite in2="hardAlpha" operator="out"/>
<feColorMatrix type="matrix" values="0 0 0 0 0 0 0 0 0 0 0 0 0 0 0 0 0 0 0.25 0"/>
<feBlend mode="normal" in2="BackgroundImageFix" result="effect1_dropShadow_826_200"/>
<feBlend mode="normal" in="SourceGraphic" in2="effect1_dropShadow_826_200" result="shape"/>
</filter>
</defs>
</svg>
