<svg width="18" height="18" viewBox="0 0 18 18" fill="none" xmlns="http://www.w3.org/2000/svg">
<path d="M18 15.6V18H0V15.6C0 15.6 0 10.8 9 10.8C18 10.8 18 15.6 18 15.6ZM13.5 4.2C13.5 3.36932 13.2361 2.55729 12.7416 1.86661C12.2471 1.17592 11.5443 0.637596 10.7221 0.319708C9.89981 0.00181979 8.99501 -0.0813542 8.12209 0.0807037C7.24918 0.242762 6.44736 0.642773 5.81802 1.23015C5.18868 1.81753 4.7601 2.5659 4.58647 3.38062C4.41283 4.19534 4.50195 5.03982 4.84254 5.80727C5.18314 6.57472 5.75991 7.23067 6.49993 7.69217C7.23996 8.15368 8.10998 8.4 9 8.4C10.1935 8.4 11.3381 7.9575 12.182 7.16985C13.0259 6.3822 13.5 5.31391 13.5 4.2Z" fill="#DDE0D5"/>
</svg>
